# xmcd
# 
# Track frame offsets:
#     150
#     25162
#     60374
#     82889
#     122164
#     145562
#     176064
#     209119
#     247396
#     269584
#     297201
#     325969
# 
# Disc length: 4678
# 
# Revision: 1
# Processed by: cddbd v1.5.2PL0 Copyright (c) Steve Scherf et al.
# Submitted via: fre:ac v1.0.31
# 
DISCID=b812440c
DTITLE=Various Artist - 17 - Flight to Jordan
DYEAR=1969
DGENRE=Jazz
TTITLE0=Duke Jordan - Flight to Jordan
TTITLE1=Duke Jordan - Star brite
TTITLE2=Duke Jordan - Squawkin'
TTITLE3=Duke Jordan - Duke Jordan - Deacon Joe
TTITLE4=Duke Jordan - Duke Jordan - Split quick
TTITLE5=Duke Jordan - Duke Jordan - Si-Joya
TTITLE6=Kenny Drew - Kenny Drew - Undercurrent
TTITLE7=Kenny Drew - Kenny Drew - Funk-Cosity
TTITLE8=Kenny Drew - Kenny Drew - Lion's den
TTITLE9=Kenny Drew - Kenny Drew - The pot's on
TTITLE10=Kenny Drew - Kenny Drew - Groovin' the blues
TTITLE11=Kenny Drew - Kenny Drew - Ballade
EXTD=YEAR: 1969
EXTT0=
EXTT1=
EXTT2=
EXTT3=
EXTT4=
EXTT5=
EXTT6=
EXTT7=
EXTT8=
EXTT9=
EXTT10=
EXTT11=
PLAYORDER=
